<svg xmlns="http://www.w3.org/2000/svg" width="25" height="26" viewBox="0 0 25 26">
    <g fill="none" fill-rule="evenodd">
        <g fill-rule="nonzero">
            <g>
                <path fill="#41A5DC" d="M24.056 3.467c.245 0 .444-.194.444-.434v-.866C24.499.97 23.505 0 22.278 0h-16C5.05.001 4.057.97 4.056 2.167v19.5h.888v-19.5c.001-.718.598-1.3 1.334-1.3H20.5c-.29.374-.446.83-.445 1.3v21.666c0 .718-.597 1.3-1.334 1.3-.736 0-1.333-.582-1.333-1.3v-.866c0-.24-.2-.434-.445-.434h-16c-.245 0-.444.194-.444.434v.866C.501 25.03 1.495 26 2.722 26h16c1.227-.001 2.221-.97 2.222-2.167V3.467h3.112zM2.722 25.133c-.736 0-1.332-.582-1.333-1.3V23.4H16.5v.433c0 .47.156.926.445 1.3H2.722zM22.278.867c.736 0 1.332.582 1.333 1.3V2.6h-2.667v-.433c.001-.718.598-1.3 1.334-1.3z" transform="translate(-417 -473) translate(417 473)"/>
                <path fill="#3EA4DC" d="M10.5 4.5c-.004.338.152.657.42.861-.04.334.074.669.312.907s.573.353.907.311c.207.266.524.421.861.421.337 0 .654-.155.861-.42.334.04.669-.074.907-.312s.353-.573.311-.907c.266-.207.421-.524.421-.861 0-.337-.155-.654-.42-.861.04-.334-.074-.669-.312-.907s-.573-.353-.907-.311C13.654 2.155 13.337 2 13 2c-.337 0-.654.155-.861.42-.334-.04-.669.074-.907.312s-.353.573-.311.907c-.27.204-.425.523-.42.861zm1.027-.242c.132-.03.241-.122.293-.247.052-.125.04-.267-.033-.382-.062-.098-.047-.226.034-.308.082-.081.21-.096.308-.034.115.072.257.085.382.033.125-.052.217-.161.247-.293.026-.113.126-.194.242-.194.116 0 .216.08.242.194.03.132.122.241.247.293.125.052.267.04.382-.033.098-.062.225-.047.307.034.082.082.097.21.035.308-.072.115-.085.257-.033.382.052.125.161.217.293.247.113.026.194.126.194.242 0 .116-.08.216-.194.242-.132.03-.241.122-.293.247-.052.125-.04.267.033.382.062.098.047.226-.035.308-.082.082-.21.096-.307.034-.115-.072-.257-.085-.382-.033-.125.052-.217.161-.247.293-.026.113-.126.194-.242.194-.116 0-.216-.08-.242-.194-.03-.132-.122-.241-.247-.293-.125-.052-.267-.04-.382.033-.098.062-.226.048-.308-.034-.082-.082-.096-.21-.034-.308.072-.115.085-.257.033-.382-.052-.125-.161-.217-.293-.247-.113-.026-.194-.126-.194-.242 0-.116.08-.216.194-.242zM10.5 10L14.5 10 14.5 11 10.5 11zM12.5 8L16.5 8 16.5 9 12.5 9zM9.5 8L11.5 8 11.5 9 9.5 9zM8.5 12L19.5 12 19.5 13 8.5 13zM6.5 12L7.5 12 7.5 13 6.5 13zM8.5 14L15.5 14 15.5 15 8.5 15zM16.5 14L19.5 14 19.5 15 16.5 15zM8.5 16L19.5 16 19.5 17 8.5 17zM6.5 16L7.5 16 7.5 17 6.5 17zM8.5 17L11.5 17 11.5 18 8.5 18zM12.5 17L19.5 17 19.5 18 12.5 18zM8.5 19L15.5 19 15.5 20 8.5 20zM6.5 19L7.5 19 7.5 20 6.5 20zM8.5 21L19.5 21 19.5 22 8.5 22zM16.5 19L19.5 19 19.5 20 16.5 20z" transform="translate(-417 -473) translate(417 473)"/>
            </g>
        </g>
    </g>
</svg>
