<svg width="1009" height="1009" viewBox="0 0 1009 1009" fill="none" xmlns="http://www.w3.org/2000/svg">
<path d="M728.078 3.23721C779.284 5.59154 814.683 13.117 847.392 25.8136C878.405 37.4091 906.482 55.6964 929.625 79.3747C953.304 102.518 971.591 130.595 983.186 161.608C995.883 194.359 1003.41 229.716 1005.76 280.922C1008.66 344.405 1009 366.772 1009 504.5C1009 642.229 1008.66 664.595 1005.76 728.078C1003.41 779.284 995.883 814.683 983.186 847.434C971.585 878.432 953.298 906.494 929.625 929.625C906.483 953.305 878.406 971.592 847.392 983.186C814.641 995.883 779.284 1003.41 728.078 1005.76C664.595 1008.66 642.271 1009 504.5 1009C366.729 1009 344.363 1008.66 280.922 1005.76C229.716 1003.41 194.317 995.883 161.566 983.186C130.567 971.587 102.505 953.299 79.3747 929.625C55.6964 906.482 37.4091 878.405 25.8136 847.392C13.117 814.641 5.59154 779.284 3.23721 728.078C0.336333 664.679 0 642.313 0 504.5C0 366.729 0.336333 344.321 3.23721 280.922C5.59154 229.716 13.117 194.317 25.8136 161.608C37.4091 130.595 55.6964 102.518 79.3747 79.3747C102.506 55.7016 130.568 37.4146 161.566 25.8136C194.359 13.117 229.716 5.59154 280.922 3.23721C344.321 0.336333 366.687 0 504.5 0C642.271 0 664.679 0.336333 728.078 3.23721ZM504.5 112.125C368.285 112.125 347.432 112.419 286.009 115.236C247.037 117.002 223.662 121.963 202.178 130.329C185.689 136.308 170.789 145.988 158.623 158.623C145.961 170.767 136.277 185.673 130.329 202.178C122.005 223.62 117.002 247.037 115.236 286.009C112.419 347.432 112.125 368.285 112.125 504.5C112.125 640.715 112.419 661.568 115.236 722.991C117.002 761.963 121.963 785.338 130.329 806.78C137.476 825.11 145.044 836.755 158.623 850.377C172.245 863.998 183.89 871.566 202.178 878.671C223.62 886.995 247.037 891.998 286.009 893.764C347.474 896.581 368.327 896.875 504.5 896.875C640.715 896.875 661.526 896.581 722.991 893.764C761.963 891.998 785.338 887.037 806.822 878.671C823.311 872.692 838.211 863.012 850.377 850.377C863.998 836.755 871.566 825.11 878.671 806.822C886.995 785.38 891.998 761.963 893.764 722.991C896.581 661.526 896.875 640.673 896.875 504.5C896.875 368.327 896.581 347.474 893.764 286.009C891.998 247.037 887.037 223.662 878.671 202.22C872.726 185.702 863.042 170.781 850.377 158.623C838.22 145.957 823.299 136.273 806.78 130.329C785.338 122.005 761.921 117.002 722.948 115.236C661.526 112.419 640.673 112.125 504.458 112.125H504.5ZM504.5 766.083C435.124 766.083 368.589 738.524 319.533 689.467C270.476 640.411 242.917 573.876 242.917 504.5C242.917 435.124 270.476 368.589 319.533 319.533C368.589 270.476 435.124 242.917 504.5 242.917C573.876 242.917 640.411 270.476 689.467 319.533C738.524 368.589 766.083 435.124 766.083 504.5C766.083 573.876 738.524 640.411 689.467 689.467C640.411 738.524 573.876 766.083 504.5 766.083ZM504.5 654C544.15 654 582.176 638.249 610.213 610.213C638.249 582.176 654 544.15 654 504.5C654 464.85 638.249 426.824 610.213 398.787C582.176 370.751 544.15 355 504.5 355C464.85 355 426.824 370.751 398.787 398.787C370.751 426.824 355 464.85 355 504.5C355 544.15 370.751 582.176 398.787 610.213C426.824 638.249 464.85 654 504.5 654ZM766.083 298.958C751.215 298.958 736.955 293.052 726.441 282.538C715.927 272.024 710.021 257.764 710.021 242.896C710.021 228.027 715.927 213.767 726.441 203.254C736.955 192.74 751.215 186.833 766.083 186.833C780.952 186.833 795.212 192.74 805.725 203.254C816.239 213.767 822.146 228.027 822.146 242.896C822.146 257.764 816.239 272.024 805.725 282.538C795.212 293.052 780.952 298.958 766.083 298.958Z" fill="white"/>
</svg>
