<svg width="1033" height="1033" viewBox="0 0 1033 1033" fill="none" xmlns="http://www.w3.org/2000/svg">
<path d="M598.011 83.9149C602.097 68.6507 612.078 55.6341 625.759 47.7272C639.44 39.8202 655.702 37.6702 670.968 41.7499C748.017 61.8223 818.317 102.085 874.618 158.385C930.919 214.686 971.181 284.986 991.254 362.035C993.462 369.652 994.127 377.633 993.21 385.51C992.294 393.387 989.815 401.003 985.918 407.91C982.021 414.817 976.785 420.876 970.516 425.734C964.248 430.591 957.073 434.149 949.411 436.198C941.75 438.247 933.757 438.747 925.901 437.667C918.044 436.588 910.482 433.951 903.657 429.912C896.832 425.873 890.883 420.512 886.156 414.144C881.43 407.776 878.022 400.529 876.132 392.827C861.331 336.071 831.665 284.288 790.19 242.813C748.715 201.339 696.932 171.673 640.176 156.872C624.911 152.786 611.895 142.805 603.988 129.123C596.081 115.442 593.931 99.1809 598.011 83.9149ZM1032.28 772.659C1022.81 844.754 987.416 910.935 932.717 958.844C878.017 1006.75 807.749 1033.11 735.035 1033C329.723 1033 0.000359773 703.278 0.000359773 297.968C-0.112321 225.255 26.2474 154.986 74.1563 100.287C122.065 45.5877 188.247 10.1979 260.342 0.727239C281.584 -1.854 303.093 2.4763 321.681 13.0765C340.27 23.6768 354.949 39.9831 363.544 59.5794L468.386 293.647C468.498 293.954 468.631 294.253 468.783 294.541C475.227 309.6 477.846 326.019 476.407 342.336C474.969 358.652 469.518 374.359 460.539 388.059C459.261 390.055 457.851 391.963 456.318 393.77L361.657 506.558C396.72 570.327 463.469 636.48 527.984 671.493L638.785 577.131C640.563 575.642 642.42 574.25 644.348 572.959C658.095 563.734 673.939 558.109 690.426 556.599C706.913 555.089 723.515 557.743 738.71 564.318L739.604 564.715L973.424 669.457C993.016 678.059 1009.32 692.739 1019.92 711.326C1030.52 729.913 1034.85 751.418 1032.28 772.659ZM911.542 772.361L702.952 678.943L591.554 773.653C589.803 775.169 587.962 776.579 586.041 777.874C571.722 787.369 555.184 792.987 538.044 794.18C520.905 795.372 503.748 792.098 488.252 784.678C391.506 737.994 295.107 642.241 248.323 546.29C240.883 530.863 237.559 513.774 238.673 496.683C239.786 479.592 245.301 463.08 254.68 448.749C255.975 446.752 257.402 444.844 258.951 443.037L354.108 330.2L260.64 121.61C220.481 130.46 184.557 152.776 158.829 184.855C133.1 216.934 119.115 256.846 119.195 297.968C119.392 461.238 184.339 617.764 299.788 733.213C415.238 848.662 571.765 913.608 735.035 913.805C776.182 913.919 816.13 899.95 848.239 874.219C880.349 848.488 902.687 812.545 911.542 772.361ZM584.204 345C608.576 352.682 630.736 366.128 648.805 384.197C666.875 402.267 680.321 424.427 688.003 448.799C691.805 460.891 699.365 471.455 709.582 478.957C719.799 486.46 732.143 490.509 744.819 490.517C750.898 490.509 756.942 489.588 762.748 487.785C777.765 483.033 790.291 472.53 797.587 458.57C804.883 444.611 806.356 428.331 801.685 413.289C788.244 370.616 764.707 331.815 733.072 300.18C701.436 268.544 662.635 245.007 619.962 231.567C612.452 229.047 604.515 228.049 596.615 228.633C588.714 229.216 581.01 231.368 573.951 234.964C566.892 238.56 560.621 243.527 555.505 249.574C550.388 255.622 546.529 262.629 544.152 270.186C541.775 277.742 540.928 285.697 541.661 293.585C542.395 301.472 544.693 309.135 548.422 316.124C552.152 323.113 557.237 329.288 563.38 334.289C569.524 339.29 576.603 343.015 584.204 345.248V345Z" fill="white"/>
</svg>
